<svg width="139" height="32" viewBox="0 0 139 32" fill="none" xmlns="http://www.w3.org/2000/svg">
  <g fill="#61d3ab">
    <path d="M0 31.6513L6.81937 0.271185H11.1409L18 31.6513H13.7577L12.2907 23.7482H5.74888L4.20263 31.6513H0ZM6.3436 20.6102H11.696L8.99998 6.46973L6.3436 20.6102Z" />
    <path d="M26.0162 31.6513V0.271185H32.4787C34.6197 0.271185 36.3906 0.555285 37.7915 1.12349C39.1924 1.66586 40.2232 2.5569 40.884 3.79661C41.5712 5.01049 41.9148 6.61178 41.9148 8.60048C41.9148 9.81437 41.7826 10.9249 41.5183 11.9322C41.254 12.9136 40.8311 13.753 40.2496 14.4504C39.6681 15.1219 38.9016 15.6126 37.9501 15.9225L42.5095 31.6513H38.1879L33.9853 16.9298H30.4963V31.6513H26.0162ZM30.4963 13.7918H32.2012C33.4699 13.7918 34.5007 13.6368 35.2937 13.3269C36.0866 13.0169 36.6681 12.4875 37.0382 11.7385C37.4082 10.9895 37.5932 9.9435 37.5932 8.60048C37.5932 6.76675 37.2496 5.44956 36.5624 4.64891C35.8752 3.82244 34.5139 3.4092 32.4787 3.4092H30.4963V13.7918Z" />
    <path d="M59.3817 32C57.1086 32 55.3377 31.5351 54.0689 30.6053C52.8266 29.6755 51.9544 28.4229 51.4522 26.8475C50.9764 25.272 50.7385 23.5157 50.7385 21.5787V10.4988C50.7385 8.38095 50.9764 6.5343 51.4522 4.95884C51.9544 3.38337 52.8266 2.16949 54.0689 1.31719C55.3377 0.439064 57.1086 0 59.3817 0C61.3905 0 62.9764 0.361582 64.1394 1.08475C65.3288 1.80791 66.1746 2.841 66.6768 4.18402C67.2055 5.52704 67.4698 7.14124 67.4698 9.02663V11.5061H63.2275V9.29782C63.2275 8.13559 63.1614 7.11542 63.0293 6.23729C62.9235 5.33333 62.6063 4.636 62.0777 4.14528C61.5491 3.65456 60.6636 3.4092 59.4213 3.4092C58.1526 3.4092 57.2275 3.68039 56.646 4.22276C56.0645 4.73931 55.6813 5.4883 55.4962 6.46973C55.3377 7.42534 55.2584 8.54883 55.2584 9.84019V22.276C55.2584 23.8515 55.3905 25.1041 55.6548 26.0339C55.9191 26.9379 56.3553 27.5835 56.9632 27.9709C57.5711 28.3584 58.3905 28.5521 59.4213 28.5521C60.6372 28.5521 61.5094 28.2938 62.0381 27.7772C62.5667 27.2349 62.8971 26.4988 63.0293 25.569C63.1614 24.6392 63.2275 23.5545 63.2275 22.3148V19.9903H67.4698V22.3148C67.4698 24.226 67.2319 25.9177 66.7561 27.3898C66.2803 28.8362 65.461 29.9726 64.298 30.799C63.135 31.5997 61.4962 32 59.3817 32Z" />
    <path d="M74.751 31.6513L81.5703 0.271185H85.8919L92.7509 31.6513H88.5086L87.0417 23.7482H80.4999L78.9536 31.6513H74.751ZM81.0946 20.6102H86.447L83.7509 6.46973L81.0946 20.6102Z" />
    <path d="M100.767 31.6513V0.271185H103.82L112.939 21.1138V0.271185H116.666V31.6513H113.811L104.573 10.2276V31.6513H100.767Z" />
    <path d="M126.471 31.6513V0.271185H138.921V3.52543H130.952V13.908H137.414V17.0073H130.952V28.5133H139V31.6513H126.471Z" />
  </g>
</svg>